<?xml version="1.0" encoding="UTF-8" standalone="no"?>
<svg width="25px" height="25px" viewBox="0 0 25 25" version="1.1" xmlns="http://www.w3.org/2000/svg" xmlns:xlink="http://www.w3.org/1999/xlink" xmlns:sketch="http://www.bohemiancoding.com/sketch/ns">
    <!-- Generator: Sketch 3.3.1 (12002) - http://www.bohemiancoding.com/sketch -->
    <title>email</title>
    <desc>Created with Sketch.</desc>
    <defs></defs>
    <g id="Page-1" stroke="none" stroke-width="1" fill="none" fill-rule="evenodd" sketch:type="MSPage">
        <g id="email" sketch:type="MSLayerGroup" fill="#FFFFFF">
            <g id="layer1" transform="translate(0.015394, 0.154166)" sketch:type="MSShapeGroup">
                <path d="M1.93098944,24.4834871 C1.54976315,24.4013147 1.09189138,24.1664655 0.852205603,23.9301659 C0.592454741,23.6740841 0.421438362,23.3701681 0.298920474,22.9469159 L0.20012306,22.6056078 L0.20012306,12.3699925 C0.20012306,2.80190086 0.204950216,2.11560862 0.274138793,1.84658966 C0.457303664,1.13440496 0.846264871,0.624929741 1.4181403,0.34813556 C2.05109116,0.0417799569 1.28832759,0.0616109914 12.4388362,0.0616109914 C23.5455797,0.0616109914 22.8567802,0.0443571121 23.4525194,0.337492241 C24.0190496,0.616257543 24.4008405,1.13239116 24.5681961,1.84574591 C24.6422177,2.16125927 24.6459353,2.6658278 24.6459353,12.391361 C24.6459353,21.9476595 24.6411573,22.6241897 24.5717608,22.8940862 C24.3494612,23.7586293 23.7844267,24.3055797 22.9255711,24.4875841 C22.4984483,24.578097 2.35167629,24.5741659 1.93098944,24.4834871 L1.93098944,24.4834871 Z M21.8466336,11.8571431 L21.8466336,4.76272909 L12.4443987,4.76272909 L3.04216293,4.76272909 L3.04216293,11.8571431 L3.04216293,18.9515582 L12.4443987,18.9515582 L21.8466336,18.9515582 L21.8466336,11.8571431 L21.8466336,11.8571431 Z M6.28183125,16.6116832 C6.82344634,16.0534246 7.89151078,14.9620172 8.65530603,14.1863341 L10.044028,12.7759978 L10.6138362,13.353625 C11.2131142,13.9611272 11.4246164,14.1060496 11.8944289,14.2310948 C12.1956961,14.3112802 12.7477996,14.3096595 13.062597,14.2276638 C13.484444,14.1177866 13.7188922,13.9581422 14.3248448,13.368153 L14.9018017,12.8063987 L16.7822478,14.7294914 C17.8164935,15.7871918 18.8710194,16.8717608 19.1256358,17.1396401 L19.5885754,17.6266961 L12.4428276,17.6266961 L5.29707759,17.6266961 L6.28183125,16.6116832 L6.28183125,16.6116832 Z M4.37150948,11.8571431 L4.37168211,7.04918168 L6.73849246,9.439925 L9.10530172,11.8306685 L7.83054957,13.1367134 C7.12943513,13.8550388 6.06429267,14.9427866 5.46356638,15.553931 L4.37133685,16.6651056 L4.37150948,11.8571431 L4.37150948,11.8571431 Z M19.7718556,15.9065151 C19.3768534,15.5010431 18.3235216,14.4236659 17.4311164,13.5123427 L15.808569,11.8553927 L18.1645905,9.49502457 L20.5206099,7.13465668 L20.5211918,11.8891963 C20.5215129,14.504194 20.5146358,16.6437349 20.5059095,16.6437349 C20.497181,16.6437349 20.1668599,16.3119871 19.7718556,15.9065151 L19.7718556,15.9065151 Z M12.0649332,12.8877866 C11.9855086,12.8454655 10.4347328,11.3029155 8.61876724,9.45989871 L5.31701034,6.10895819 L8.90207328,6.09803103 C10.8738578,6.09202134 14.1041228,6.09202134 16.080444,6.09803103 L19.6737478,6.10895819 L16.3265517,9.48102134 C14.2868147,11.5359144 12.9254935,12.8755905 12.8414634,12.9107004 C12.6447414,12.9928966 12.2397672,12.9809461 12.0649332,12.8877866 L12.0649332,12.8877866 Z" id="path2320"></path>
            </g>
        </g>
    </g>
</svg>