<?xml version="1.0" encoding="UTF-8" standalone="no"?>
<svg width="101px" height="101px" viewBox="0 0 101 101" version="1.1" xmlns="http://www.w3.org/2000/svg" xmlns:xlink="http://www.w3.org/1999/xlink" xmlns:sketch="http://www.bohemiancoding.com/sketch/ns">
    <!-- Generator: Sketch 3.3.2 (12043) - http://www.bohemiancoding.com/sketch -->
    <title>path2320</title>
    <desc>Created with Sketch.</desc>
    <defs></defs>
    <g id="Page-1" stroke="none" stroke-width="1" fill="none" fill-rule="evenodd" sketch:type="MSPage">
        <g id="email" sketch:type="MSLayerGroup" fill="#BD84A0">
            <g id="Page-1" sketch:type="MSShapeGroup">
                <g id="email">
                    <g id="layer1" transform="translate(0.015394, 0.154166)">
                        <path d="M7.28054388,99.9645012 C5.72106905,99.6283602 3.84806207,98.6676672 2.8675842,97.7010412 C1.8050265,96.6534924 1.10545318,95.4102692 0.604271685,93.6788798 L0.20012306,92.2826976 L0.20012306,50.4120688 C0.20012306,11.2720658 0.219869411,8.46466371 0.502897753,7.36419317 C1.25216666,4.45087333 2.84328257,2.36677314 5.18264206,1.23449666 C7.77184161,-0.0187061363 4.65161978,0.0624162838 50.2647845,0.0624162838 C95.6989202,0.0624162838 92.8812617,-0.00816381853 95.3182403,1.19095825 C97.6357341,2.33129795 99.1975186,4.44263551 99.8821169,7.36074166 C100.184916,8.65140592 100.200123,10.7154344 100.200123,50.4994805 C100.200123,89.5912415 100.180578,92.3587102 99.8966989,93.4627704 C98.9873423,96.9993398 96.6759669,99.2367389 93.1626633,99.9812607 C91.4154405,100.35152 9.00143925,100.335439 7.28054388,99.9645012 L7.28054388,99.9645012 L7.28054388,99.9645012 Z M88.749075,48.3141659 L88.749075,19.293187 L50.2875389,19.293187 L11.8259993,19.293187 L11.8259993,48.3141659 L11.8259993,77.3351492 L50.2875389,77.3351492 L88.749075,77.3351492 L88.749075,48.3141659 L88.749075,48.3141659 Z M25.0784463,67.7634689 C27.2940204,65.4798115 31.6631305,61.0152129 34.7875726,57.8421414 L40.46839,52.0729066 L42.7992932,54.4357948 C45.2507478,56.920892 46.1159357,57.5137232 48.0377884,58.0252431 C49.2701761,58.3532559 51.528655,58.3466261 52.8163905,58.011208 C54.5420316,57.5617355 55.5010843,56.9086813 57.9798426,54.4952242 L60.3399887,52.197267 L68.0322923,60.0640242 C72.2630607,64.3907383 76.576789,68.8273632 77.6183432,69.9231717 L79.5120811,71.9155621 L50.2811121,71.9155621 L21.050134,71.9155621 L25.0784463,67.7634689 L25.0784463,67.7634689 Z M17.2639309,48.3141659 L17.2646371,28.6463333 L26.9465013,38.4260997 L36.628361,48.2058668 L31.4137577,53.5484788 C28.5457227,56.4869183 24.1885655,60.9365466 21.7311864,63.4365429 L17.2632247,67.9820029 L17.2639309,48.3141659 L17.2639309,48.3141659 Z M80.2618218,64.8788517 C78.6459941,63.2201954 74.3371505,58.8129899 70.6866063,55.0850581 L64.0492838,48.3070056 L73.6870142,38.6514944 L83.3247361,28.9959842 L83.3271165,48.4452853 C83.32843,59.1424046 83.300298,67.8945822 83.2646015,67.8945822 C83.228896,67.8945822 81.877658,66.537508 80.2618218,64.8788517 L80.2618218,64.8788517 L80.2618218,64.8788517 Z M48.7352669,52.5301988 C48.4103663,52.3570767 42.0666384,46.046998 34.6381041,38.5078057 L21.1316725,24.8001797 L35.7970185,24.7554802 C43.8629584,24.7308965 57.0769394,24.7308965 65.1614374,24.7554802 L79.8604941,24.8001797 L66.1681853,38.5942117 C57.8242736,47.000122 52.2555439,52.4803085 51.9118036,52.6239319 C51.1070768,52.9601702 49.4504569,52.9112846 48.7352669,52.5301988 L48.7352669,52.5301988 L48.7352669,52.5301988 Z" id="path2320"></path>
                    </g>
                </g>
            </g>
        </g>
    </g>
</svg>