<?xml version="1.0" encoding="UTF-8" standalone="no"?>
<svg width="25px" height="25px" viewBox="0 0 25 25" version="1.1" xmlns="http://www.w3.org/2000/svg" xmlns:xlink="http://www.w3.org/1999/xlink" xmlns:sketch="http://www.bohemiancoding.com/sketch/ns">
    <!-- Generator: Sketch 3.3.2 (12043) - http://www.bohemiancoding.com/sketch -->
    <title>Shape</title>
    <desc>Created with Sketch.</desc>
    <defs></defs>
    <g id="Welcome" stroke="none" stroke-width="1" fill="none" fill-rule="evenodd" sketch:type="MSPage">
        <g id="Desktop" sketch:type="MSArtboardGroup" transform="translate(-594.000000, -2426.000000)" fill="#000000">
            <path d="M600.41276,2445.92188 C600.325955,2446.01953 600.217448,2446.00326 600.08724,2445.87305 C599.946181,2445.75369 599.924479,2445.65061 600.022135,2445.5638 C600.108941,2445.46615 600.217448,2445.48242 600.347656,2445.61263 C600.477865,2445.73199 600.499566,2445.83507 600.41276,2445.92188 L600.41276,2445.92188 Z M599.729167,2444.92904 C599.826823,2445.05924 599.826823,2445.16233 599.729167,2445.23828 C599.642361,2445.30339 599.55013,2445.26541 599.452474,2445.12435 C599.354818,2444.98329 599.354818,2444.88563 599.452474,2444.83138 C599.55013,2444.75543 599.642361,2444.78798 599.729167,2444.92904 L599.729167,2444.92904 Z M598.736328,2443.95247 C598.682075,2444.02843 598.611545,2444.03928 598.52474,2443.98503 C598.416233,2443.93077 598.378255,2443.86567 598.410807,2443.78971 C598.443359,2443.73546 598.513889,2443.72461 598.622396,2443.75716 C598.730903,2443.81141 598.76888,2443.87652 598.736328,2443.95247 L598.736328,2443.95247 Z M599.240885,2444.50586 C599.175781,2444.58181 599.088976,2444.56554 598.980469,2444.45703 C598.882812,2444.33767 598.871962,2444.25087 598.947917,2444.19661 C599.013021,2444.13151 599.099826,2444.14779 599.208333,2444.24544 C599.30599,2444.3648 599.31684,2444.45161 599.240885,2444.50586 L599.240885,2444.50586 Z M601.340495,2446.32878 C601.297092,2446.45898 601.19401,2446.49154 601.03125,2446.42643 C600.846788,2446.38303 600.776259,2446.30165 600.819661,2446.18229 C600.863064,2446.06293 600.966146,2446.02496 601.128906,2446.06836 C601.302517,2446.12261 601.373047,2446.20942 601.340495,2446.32878 L601.340495,2446.32878 Z M602.365885,2446.41016 C602.365885,2446.52951 602.27908,2446.58919 602.105469,2446.58919 C601.921007,2446.61089 601.828776,2446.55122 601.828776,2446.41016 C601.828776,2446.2908 601.915582,2446.23112 602.089193,2446.23112 C602.273655,2446.20942 602.365885,2446.2691 602.365885,2446.41016 L602.365885,2446.41016 Z M603.309896,2446.2474 C603.331597,2446.3559 603.255642,2446.43186 603.082031,2446.47526 C602.90842,2446.51866 602.810764,2446.47526 602.789062,2446.34505 C602.767361,2446.21484 602.843316,2446.13346 603.016927,2446.10091 C603.190538,2446.07921 603.288194,2446.12804 603.309896,2446.2474 L603.309896,2446.2474 Z M619,2446.3125 C619,2447.60373 618.541558,2448.70779 617.624674,2449.62467 C616.707791,2450.54156 615.603733,2451 614.3125,2451 L610.666667,2451 C610.493056,2451 610.360135,2450.99457 610.267904,2450.98372 C610.175673,2450.97287 610.069878,2450.94575 609.950521,2450.90234 C609.831163,2450.85894 609.744358,2450.78027 609.690104,2450.66634 C609.635851,2450.55241 609.608724,2450.40321 609.608724,2450.21875 L609.608724,2446.32878 C609.608724,2445.27626 609.326606,2444.50586 608.76237,2444.01758 C609.380859,2443.95247 609.936957,2443.85482 610.430664,2443.72461 C610.924371,2443.5944 611.434353,2443.38281 611.960612,2443.08984 C612.486871,2442.79688 612.926324,2442.43609 613.278971,2442.00749 C613.631619,2441.57888 613.919162,2441.00922 614.141602,2440.2985 C614.364041,2439.58778 614.47526,2438.77127 614.47526,2437.84896 C614.47526,2436.53602 614.046658,2435.4184 613.189453,2434.49609 C613.590929,2433.50868 613.547526,2432.40191 613.059245,2431.17578 C612.755425,2431.07812 612.315972,2431.1378 611.740885,2431.35482 C611.165799,2431.57183 610.666667,2431.81055 610.24349,2432.07096 L609.625,2432.46159 C608.615885,2432.17947 607.574219,2432.03841 606.5,2432.03841 C605.425781,2432.03841 604.384115,2432.17947 603.375,2432.46159 C603.201389,2432.34223 602.970812,2432.19575 602.683268,2432.02214 C602.395725,2431.84852 601.942708,2431.63965 601.324219,2431.39551 C600.705729,2431.15137 600.239149,2431.07812 599.924479,2431.17578 C599.447049,2432.40191 599.409071,2433.50868 599.810547,2434.49609 C598.953342,2435.4184 598.52474,2436.53602 598.52474,2437.84896 C598.52474,2438.77127 598.635959,2439.58507 598.858398,2440.29036 C599.080838,2440.99566 599.365668,2441.56532 599.712891,2441.99935 C600.060113,2442.43338 600.496853,2442.79688 601.023112,2443.08984 C601.549371,2443.38281 602.059353,2443.5944 602.55306,2443.72461 C603.046766,2443.85482 603.602865,2443.95247 604.221354,2444.01758 C603.787326,2444.4082 603.521484,2444.96701 603.423828,2445.69401 C603.195964,2445.80252 602.951823,2445.8839 602.691406,2445.93815 C602.43099,2445.9924 602.121745,2446.01953 601.763672,2446.01953 C601.405599,2446.01953 601.050239,2445.90289 600.697591,2445.6696 C600.344944,2445.43631 600.043837,2445.09722 599.794271,2444.65234 C599.588108,2444.30512 599.324978,2444.023 599.004883,2443.80599 C598.684787,2443.58898 598.416233,2443.45877 598.199219,2443.41536 L597.873698,2443.36654 C597.645833,2443.36654 597.488498,2443.39095 597.401693,2443.43978 C597.314887,2443.48861 597.28776,2443.551 597.320312,2443.62695 C597.352865,2443.70291 597.401693,2443.77886 597.466797,2443.85482 C597.531901,2443.93077 597.602431,2443.99588 597.678385,2444.05013 L597.792318,2444.13151 C598.031033,2444.24002 598.267036,2444.44618 598.500326,2444.75 C598.733615,2445.05382 598.904514,2445.33051 599.013021,2445.58008 L599.175781,2445.95443 C599.31684,2446.36675 599.555556,2446.70041 599.891927,2446.9554 C600.228299,2447.21039 600.591797,2447.37316 600.982422,2447.44368 C601.373047,2447.51421 601.750109,2447.55219 602.113607,2447.55762 C602.477105,2447.56304 602.778212,2447.54405 603.016927,2447.50065 L603.391276,2447.43555 C603.391276,2447.84787 603.393989,2448.40668 603.399414,2449.11198 C603.404839,2449.81727 603.407552,2450.1862 603.407552,2450.21875 C603.407552,2450.45747 603.347873,2450.63921 603.228516,2450.764 C603.109158,2450.88878 602.9898,2450.95931 602.870443,2450.97559 C602.751085,2450.99186 602.572049,2451 602.333333,2451 L598.6875,2451 C597.396267,2451 596.292209,2450.54156 595.375326,2449.62467 C594.458442,2448.70779 594,2447.60373 594,2446.3125 L594,2430.6875 C594,2429.39627 594.458442,2428.29221 595.375326,2427.37533 C596.292209,2426.45844 597.396267,2426 598.6875,2426 L614.3125,2426 C615.603733,2426 616.707791,2426.45844 617.624674,2427.37533 C618.541558,2428.29221 619,2429.39627 619,2430.6875 L619,2446.3125 Z" id="Shape" sketch:type="MSShapeGroup"></path>
        </g>
    </g>
</svg>