<?xml version="1.0" encoding="UTF-8" standalone="no"?>
<svg width="25px" height="25px" viewBox="0 0 25 25" version="1.1" xmlns="http://www.w3.org/2000/svg" xmlns:xlink="http://www.w3.org/1999/xlink" xmlns:sketch="http://www.bohemiancoding.com/sketch/ns">
    <!-- Generator: Sketch 3.3.1 (12002) - http://www.bohemiancoding.com/sketch -->
    <title>Shape</title>
    <desc>Created with Sketch.</desc>
    <defs></defs>
    <g id="Welcome" stroke="none" stroke-width="1" fill="none" fill-rule="evenodd" sketch:type="MSPage">
        <g id="Desktop" sketch:type="MSArtboardGroup" transform="translate(-512.000000, -2401.000000)" fill="#FFFFFF">
            <path d="M518.41276,2420.92188 C518.325955,2421.01953 518.217448,2421.00326 518.08724,2420.87305 C517.946181,2420.75369 517.924479,2420.65061 518.022135,2420.5638 C518.108941,2420.46615 518.217448,2420.48242 518.347656,2420.61263 C518.477865,2420.73199 518.499566,2420.83507 518.41276,2420.92188 L518.41276,2420.92188 Z M517.729167,2419.92904 C517.826823,2420.05924 517.826823,2420.16233 517.729167,2420.23828 C517.642361,2420.30339 517.55013,2420.26541 517.452474,2420.12435 C517.354818,2419.98329 517.354818,2419.88563 517.452474,2419.83138 C517.55013,2419.75543 517.642361,2419.78798 517.729167,2419.92904 L517.729167,2419.92904 Z M516.736328,2418.95247 C516.682075,2419.02843 516.611545,2419.03928 516.52474,2418.98503 C516.416233,2418.93077 516.378255,2418.86567 516.410807,2418.78971 C516.443359,2418.73546 516.513889,2418.72461 516.622396,2418.75716 C516.730903,2418.81141 516.76888,2418.87652 516.736328,2418.95247 L516.736328,2418.95247 Z M517.240885,2419.50586 C517.175781,2419.58181 517.088976,2419.56554 516.980469,2419.45703 C516.882812,2419.33767 516.871962,2419.25087 516.947917,2419.19661 C517.013021,2419.13151 517.099826,2419.14779 517.208333,2419.24544 C517.30599,2419.3648 517.31684,2419.45161 517.240885,2419.50586 L517.240885,2419.50586 Z M519.340495,2421.32878 C519.297092,2421.45898 519.19401,2421.49154 519.03125,2421.42643 C518.846788,2421.38303 518.776259,2421.30165 518.819661,2421.18229 C518.863064,2421.06293 518.966146,2421.02496 519.128906,2421.06836 C519.302517,2421.12261 519.373047,2421.20942 519.340495,2421.32878 L519.340495,2421.32878 Z M520.365885,2421.41016 C520.365885,2421.52951 520.27908,2421.58919 520.105469,2421.58919 C519.921007,2421.61089 519.828776,2421.55122 519.828776,2421.41016 C519.828776,2421.2908 519.915582,2421.23112 520.089193,2421.23112 C520.273655,2421.20942 520.365885,2421.2691 520.365885,2421.41016 L520.365885,2421.41016 Z M521.309896,2421.2474 C521.331597,2421.3559 521.255642,2421.43186 521.082031,2421.47526 C520.90842,2421.51866 520.810764,2421.47526 520.789062,2421.34505 C520.767361,2421.21484 520.843316,2421.13346 521.016927,2421.10091 C521.190538,2421.07921 521.288194,2421.12804 521.309896,2421.2474 L521.309896,2421.2474 Z M537,2421.3125 C537,2422.60373 536.541558,2423.70779 535.624674,2424.62467 C534.707791,2425.54156 533.603733,2426 532.3125,2426 L528.666667,2426 C528.493056,2426 528.360135,2425.99457 528.267904,2425.98372 C528.175673,2425.97287 528.069878,2425.94575 527.950521,2425.90234 C527.831163,2425.85894 527.744358,2425.78027 527.690104,2425.66634 C527.635851,2425.55241 527.608724,2425.40321 527.608724,2425.21875 L527.608724,2421.32878 C527.608724,2420.27626 527.326606,2419.50586 526.76237,2419.01758 C527.380859,2418.95247 527.936957,2418.85482 528.430664,2418.72461 C528.924371,2418.5944 529.434353,2418.38281 529.960612,2418.08984 C530.486871,2417.79688 530.926324,2417.43609 531.278971,2417.00749 C531.631619,2416.57888 531.919162,2416.00922 532.141602,2415.2985 C532.364041,2414.58778 532.47526,2413.77127 532.47526,2412.84896 C532.47526,2411.53602 532.046658,2410.4184 531.189453,2409.49609 C531.590929,2408.50868 531.547526,2407.40191 531.059245,2406.17578 C530.755425,2406.07812 530.315972,2406.1378 529.740885,2406.35482 C529.165799,2406.57183 528.666667,2406.81055 528.24349,2407.07096 L527.625,2407.46159 C526.615885,2407.17947 525.574219,2407.03841 524.5,2407.03841 C523.425781,2407.03841 522.384115,2407.17947 521.375,2407.46159 C521.201389,2407.34223 520.970812,2407.19575 520.683268,2407.02214 C520.395725,2406.84852 519.942708,2406.63965 519.324219,2406.39551 C518.705729,2406.15137 518.239149,2406.07812 517.924479,2406.17578 C517.447049,2407.40191 517.409071,2408.50868 517.810547,2409.49609 C516.953342,2410.4184 516.52474,2411.53602 516.52474,2412.84896 C516.52474,2413.77127 516.635959,2414.58507 516.858398,2415.29036 C517.080838,2415.99566 517.365668,2416.56532 517.712891,2416.99935 C518.060113,2417.43338 518.496853,2417.79688 519.023112,2418.08984 C519.549371,2418.38281 520.059353,2418.5944 520.55306,2418.72461 C521.046766,2418.85482 521.602865,2418.95247 522.221354,2419.01758 C521.787326,2419.4082 521.521484,2419.96701 521.423828,2420.69401 C521.195964,2420.80252 520.951823,2420.8839 520.691406,2420.93815 C520.43099,2420.9924 520.121745,2421.01953 519.763672,2421.01953 C519.405599,2421.01953 519.050239,2420.90289 518.697591,2420.6696 C518.344944,2420.43631 518.043837,2420.09722 517.794271,2419.65234 C517.588108,2419.30512 517.324978,2419.023 517.004883,2418.80599 C516.684787,2418.58898 516.416233,2418.45877 516.199219,2418.41536 L515.873698,2418.36654 C515.645833,2418.36654 515.488498,2418.39095 515.401693,2418.43978 C515.314887,2418.48861 515.28776,2418.551 515.320312,2418.62695 C515.352865,2418.70291 515.401693,2418.77886 515.466797,2418.85482 C515.531901,2418.93077 515.602431,2418.99588 515.678385,2419.05013 L515.792318,2419.13151 C516.031033,2419.24002 516.267036,2419.44618 516.500326,2419.75 C516.733615,2420.05382 516.904514,2420.33051 517.013021,2420.58008 L517.175781,2420.95443 C517.31684,2421.36675 517.555556,2421.70041 517.891927,2421.9554 C518.228299,2422.21039 518.591797,2422.37316 518.982422,2422.44368 C519.373047,2422.51421 519.750109,2422.55219 520.113607,2422.55762 C520.477105,2422.56304 520.778212,2422.54405 521.016927,2422.50065 L521.391276,2422.43555 C521.391276,2422.84787 521.393989,2423.40668 521.399414,2424.11198 C521.404839,2424.81727 521.407552,2425.1862 521.407552,2425.21875 C521.407552,2425.45747 521.347873,2425.63921 521.228516,2425.764 C521.109158,2425.88878 520.9898,2425.95931 520.870443,2425.97559 C520.751085,2425.99186 520.572049,2426 520.333333,2426 L516.6875,2426 C515.396267,2426 514.292209,2425.54156 513.375326,2424.62467 C512.458442,2423.70779 512,2422.60373 512,2421.3125 L512,2405.6875 C512,2404.39627 512.458442,2403.29221 513.375326,2402.37533 C514.292209,2401.45844 515.396267,2401 516.6875,2401 L532.3125,2401 C533.603733,2401 534.707791,2401.45844 535.624674,2402.37533 C536.541558,2403.29221 537,2404.39627 537,2405.6875 L537,2421.3125 Z" id="Shape" sketch:type="MSShapeGroup"></path>
        </g>
    </g>
</svg>