<?xml version="1.0" encoding="UTF-8" standalone="no"?>
<svg width="100px" height="100px" viewBox="0 0 100 100" version="1.1" xmlns="http://www.w3.org/2000/svg" xmlns:xlink="http://www.w3.org/1999/xlink" xmlns:sketch="http://www.bohemiancoding.com/sketch/ns">
    <!-- Generator: Sketch 3.3.2 (12043) - http://www.bohemiancoding.com/sketch -->
    <title>Rectangle 1 + Line</title>
    <desc>Created with Sketch.</desc>
    <defs></defs>
    <g id="Page-1" stroke="none" stroke-width="1" fill="none" fill-rule="evenodd" sketch:type="MSPage">
        <g id="linkedin" sketch:type="MSLayerGroup" fill="#FFFFFF">
            <g id="Welcome" sketch:type="MSShapeGroup">
                <g id="Desktop">
                    <g id="Rectangle-1-+-Line">
                        <path d="M82.2162775,48.4807617 C82.0038421,47.824657 81.7571269,47.1608686 81.4707031,46.5000003 C80.611346,44.5171976 78.3694553,41.7862228 76.4664055,40.5085938 C74.6347652,39.2789063 70.3929225,38.1558594 68.725,38.1558594 C67.491016,38.1558594 65.2449977,38.2331881 63.1878906,38.7808594 C61.8112087,39.1473786 60.7623988,39.3280724 59.5328126,40.0464843 C56.3467311,41.9080205 54.1364217,45.1912819 53.2,46.777684 L53.2,46.777684 L53.2,47.4032246 C53.0262542,47.4713675 52.8629541,47.552365 52.7165413,47.6486462 C52.7694358,47.5446355 52.9328949,47.2301896 53.2,46.777684 L53.2,46.777684 L53.2,39 L39.2,39 L39.2,83 L53.2,83 L53.2,55.2283387 L53.2,55.2283387 C53.4509252,54.5862313 53.8083156,53.4760169 54.0364258,53.1719725 C55.2359841,51.5731001 56.3079661,50.0954562 57.8416168,49.3250737 L68.8986248,52.8479078 C69.0353524,53.2054094 69.1616892,53.5560503 69.274707,53.861426 C69.4202148,54.2545901 69.463379,54.4452153 69.6023438,54.8344728 C69.6133598,54.86533 69.6672852,55.2958008 69.8110351,55.721582 C69.8263169,55.7668459 69.8361328,56.2125979 69.9586914,56.5586916 C69.9711265,56.5938073 69.9586914,56.9068361 69.9586914,57.0718752 C69.9586914,57.0743588 69.972819,57.0818413 70,57.0937946 L70,83 L84,83 L84,57 L83.9173486,57 C83.9602279,56.8747994 83.9844187,56.7563592 84.0019531,56.5586916 C84.0225151,56.3268938 83.9857245,55.0790834 83.7569332,53.861426 C83.5705826,52.8696434 83.3473635,51.7923829 83.1992187,51.3841797 C83.0918935,51.0884518 82.8523436,50.2059571 82.6616211,49.7162109 C82.5024699,49.3075348 82.4258039,49.0357452 82.2162775,48.4807617 Z M92.0066458,0 C96.4212534,0 100,3.58853654 100,7.99335421 L100,92.0066458 C100,96.4212534 96.4114635,100 92.0066458,100 L7.99335421,100 C3.57874658,100 0,96.4114635 0,92.0066458 L0,7.99335421 C0,3.57874658 3.58853654,0 7.99335421,0 L92.0066458,0 Z M23.2,32 C27.3421356,32 30.7,28.8659932 30.7,25 C30.7,21.1340068 27.3421356,18 23.2,18 C19.0578644,18 15.7,21.1340068 15.7,25 C15.7,28.8659932 19.0578644,32 23.2,32 Z M16,39 L30,39 L30,83 L16,83 L16,39 Z" id="Rectangle-1"></path>
                        <path d="M53,55.1535155 C53,55.1535155 53.6182225,53.8795843 54.3811257,52.6908204 C54.9153779,51.8583431 55.4204183,51.2494444 56.2617345,50.3722656 C57.8310951,48.7360084 61.0420569,48.340625 62.2433004,48.340625 C63.3318559,48.340625 65.8966174,48.941761 67.3329057,50.3722656 C69.5634407,52.5938185 70,57.0410161 70,57.0410161" id="Line"></path>
                    </g>
                </g>
            </g>
        </g>
    </g>
</svg>