<?xml version="1.0" encoding="UTF-8" standalone="no"?>
<svg width="100px" height="101px" viewBox="0 0 100 101" version="1.1" xmlns="http://www.w3.org/2000/svg" xmlns:xlink="http://www.w3.org/1999/xlink" xmlns:sketch="http://www.bohemiancoding.com/sketch/ns">
    <!-- Generator: Sketch 3.3.2 (12043) - http://www.bohemiancoding.com/sketch -->
    <title>phone</title>
    <desc>Created with Sketch.</desc>
    <defs></defs>
    <g id="Page-1" stroke="none" stroke-width="1" fill="none" fill-rule="evenodd" sketch:type="MSPage">
        <g id="phone" sketch:type="MSLayerGroup" fill="#FFFFFF">
            <g id="Welcome" sketch:type="MSShapeGroup">
                <g id="Desktop">
                    <path d="M11.201644,0.01096 C4.030932,0.01096 0,3.71836 0,11.29324 L0,89.37952 C0,96.46488 3.624128,100.17468 10.78894,100.17468 L89.205164,100.17468 C96.37032,100.17468 100,96.64964 100,89.37952 L100,11.29324 C100,3.90308 96.37032,0.01096 88.98016,0.01096 C88.98016,0.01096 11.176836,-0.01368 11.201644,0.01096 L11.201644,0.01096 Z M50.564688,8.01176 C46.682424,8.44612 32.56566,14.89848 32.153648,48.16828 C31.719952,83.21516 46.682424,90.58796 50.606496,90.50852 L50.606496,67.36032 C47.376336,67.36032 46.726488,63.84304 45.988512,56.58628 C45.500348,51.7846 45.358096,45.84072 45.988512,39.9324 C46.431228,35.7868 47.20286,31.74024 50.58568,31.74024 L50.564688,8.01176 L50.564688,8.01176 Z M58.934304,90.54928 C60.430552,90.54928 61.503684,89.33024 61.503684,87.96412 L61.51444,87.95336 C61.51444,87.95336 61.503684,69.91164 61.503684,69.90072 C61.503684,68.46952 60.343812,67.34124 58.934304,67.34124 L52.377012,67.34124 L52.377012,90.54928 C52.377012,90.54928 58.918344,90.55932 58.923724,90.55396 L58.934304,90.54928 L58.934304,90.54928 Z M58.934304,31.74024 C60.430552,31.74024 61.503684,30.52124 61.503684,29.15508 L61.51444,29.14432 C61.51444,29.14432 61.503684,10.58216 61.503684,10.57124 C61.503684,9.14004 60.343812,8.01176 58.934304,8.01176 L52.377012,8.01176 L52.377012,31.74024 C52.377012,31.74024 58.918344,31.75032 58.923724,31.74492 L58.934304,31.74024 L58.934304,31.74024 Z" id="path1329"></path>
                </g>
            </g>
        </g>
    </g>
</svg>