<?xml version="1.0" encoding="UTF-8" standalone="no"?>
<svg width="25px" height="26px" viewBox="0 0 25 26" version="1.1" xmlns="http://www.w3.org/2000/svg" xmlns:xlink="http://www.w3.org/1999/xlink" xmlns:sketch="http://www.bohemiancoding.com/sketch/ns">
    <!-- Generator: Sketch 3.3.1 (12002) - http://www.bohemiancoding.com/sketch -->
    <title>path1329</title>
    <desc>Created with Sketch.</desc>
    <defs></defs>
    <g id="Welcome" stroke="none" stroke-width="1" fill="none" fill-rule="evenodd" sketch:type="MSPage">
        <g id="Desktop" sketch:type="MSArtboardGroup" transform="translate(-649.000000, -2452.000000)" fill="#FFFFFF">
            <path d="M651.800411,2452.00274 C650.007733,2452.00274 649,2452.92959 649,2454.82331 L649,2474.34488 C649,2476.11622 649.906032,2477.04367 651.697235,2477.04367 L671.301291,2477.04367 C673.09258,2477.04367 674,2476.16241 674,2474.34488 L674,2454.82331 C674,2452.97577 673.09258,2452.00274 671.24504,2452.00274 C671.24504,2452.00274 651.794209,2451.99658 651.800411,2452.00274 Z M661.641172,2454.00294 C660.670606,2454.11153 657.141415,2455.72462 657.038412,2464.04207 C656.929988,2472.80379 660.670606,2474.64699 661.651624,2474.62713 L661.651624,2468.84008 C660.844084,2468.84008 660.681622,2467.96076 660.497128,2466.14657 C660.375087,2464.94615 660.339524,2463.46018 660.497128,2461.9831 C660.607807,2460.9467 660.800715,2459.93506 661.64642,2459.93506 L661.641172,2454.00294 Z M663.733576,2474.63732 C664.107638,2474.63732 664.375921,2474.33256 664.375921,2473.99103 L664.37861,2473.98834 C664.37861,2473.98834 664.375921,2469.47791 664.375921,2469.47518 C664.375921,2469.11738 664.085953,2468.83531 663.733576,2468.83531 L662.094253,2468.83531 L662.094253,2474.63732 C662.094253,2474.63732 663.729586,2474.63983 663.730931,2474.63849 L663.733576,2474.63732 Z M663.733576,2459.93506 C664.107638,2459.93506 664.375921,2459.63031 664.375921,2459.28877 L664.37861,2459.28608 C664.37861,2459.28608 664.375921,2454.64554 664.375921,2454.64281 C664.375921,2454.28501 664.085953,2454.00294 663.733576,2454.00294 L662.094253,2454.00294 L662.094253,2459.93506 C662.094253,2459.93506 663.729586,2459.93758 663.730931,2459.93623 L663.733576,2459.93506 Z" id="path1329" sketch:type="MSShapeGroup"></path>
        </g>
    </g>
</svg>